<svg xmlns="http://www.w3.org/2000/svg" viewBox="0 0 1024 1024" width="256" height="256"><path d="M867.1 344.3v506c0 22.5.2 45 0 67.5 0 2.5-.2 4.9-.5 7.4.4-2.7.7-5.3 1.1-8-.6 4-1.7 7.8-3.1 11.5l3-7.2c-1.2 2.8-2.6 5.5-4.3 8-1.7 2.6-4 3.5 1.6-1.9-1.1 1-2 2.3-3 3.3-.3.3-3.2 3.2-3.3 3-.1-.1 7.3-5.2 1.9-1.6-2.5 1.7-5.2 3.1-8 4.3l7.2-3c-3.7 1.5-7.5 2.5-11.5 3.1 2.7-.4 5.3-.7 8-1.1-7.7 1-15.8.5-23.5.5H255.9c-26.8 0-53.6.1-80.4 0-2.5 0-5-.2-7.5-.5 2.7.4 5.3.7 8 1.1-4-.6-7.8-1.7-11.5-3.1l7.2 3c-2.8-1.2-5.5-2.6-8-4.3-2.6-1.7-3.5-4 1.9 1.6-1-1.1-2.3-2-3.3-3-.3-.3-3.2-3.2-3-3.3.1-.1 5.2 7.3 1.6 1.9-1.7-2.5-3.1-5.2-4.3-8l3 7.2c-1.5-3.7-2.5-7.5-3.1-11.5.4 2.7.7 5.3 1.1 8-.9-6.8-.5-13.9-.5-20.8V413.1c0-22.7-.2-45.5 0-68.2 0-2.5.2-4.9.5-7.4-.4 2.7-.7 5.3-1.1 8 .6-4 1.7-7.8 3.1-11.5l-3 7.2c1.2-2.8 2.6-5.5 4.3-8 1.7-2.6 4-3.5-1.6 1.9 1.1-1 2-2.3 3-3.3.3-.3 3.2-3.2 3.3-3 .1.1-7.3 5.2-1.9 1.6 2.5-1.7 5.2-3.1 8-4.3l-7.2 3c3.7-1.5 7.5-2.5 11.5-3.1-2.7.4-5.3.7-8 1.1 7.7-1 15.8-.5 23.5-.5h576.8c26.8 0 53.6-.1 80.4 0 2.5 0 5 .2 7.5.5-2.7-.4-5.3-.7-8-1.1 4 .6 7.8 1.7 11.5 3.1l-7.2-3c2.8 1.2 5.5 2.6 8 4.3 2.6 1.7 3.5 4-1.9-1.6 1 1.1 2.3 2 3.3 3 .3.3 3.2 3.2 3 3.3-.1.1-5.2-7.3-1.6-1.9 1.7 2.5 3.1 5.2 4.3 8l-3-7.2c1.5 3.7 2.5 7.5 3.1 11.5-.4-2.7-.7-5.3-1.1-8 .3 2.2.5 4.5.5 6.8.2 15.7 13.6 30.7 30 30 16.1-.7 30.2-13.2 30-30-.5-33.7-21.5-62.1-52.8-73.6-8.7-3.2-18.2-4.2-27.4-4.2H192.8c-6 0-12.1-.1-18.1 0-33.3.4-61.1 20.9-73.1 51.5-3.6 9.1-4.7 19-4.7 28.8v566.5c0 2.6-.1 5.1.1 7.7 1.9 33.3 23.3 61.5 55.2 71.7 11.8 3.8 23.9 3.3 36.1 3.3h661.2c33.7-.4 62.1-21.5 73.6-52.8 4.8-13 4.2-26.8 4.2-40.4V344.1c0-15.7-13.8-30.7-30-30-16.4.9-30.2 13.4-30.2 30.2z" fill="#ffffff" class="color000 svgShape"></path><path d="M384.2 398.3V230.8c0-12-.2-24 1.4-36-.4 2.7-.7 5.3-1.1 8 1.9-13.9 5.5-27.3 10.9-40.3l-3 7.2c4-9.3 8.8-18.3 14.4-26.7 1.3-2 2.8-3.9 4.2-5.9 3-4.2-1.8 1.7-1.9 2.4.1-.9 1.8-2.3 2.5-3.1 3.2-3.9 6.6-7.6 10.1-11.1 3.4-3.4 6.9-6.6 10.6-9.7 1-.8 2-1.6 3.1-2.5 2.7-2.3-6.2 4.6-2.4 1.9 2.1-1.5 4.2-3.1 6.4-4.6 8.4-5.7 17.4-10.4 26.7-14.4l-7.2 3c12.9-5.4 26.4-9 40.3-10.9-2.7.4-5.3.7-8 1.1 13.9-1.8 27.8-1.8 41.7 0-2.7-.4-5.3-.7-8-1.1 13.9 1.9 27.3 5.5 40.3 10.9l-7.2-3c9.3 4 18.3 8.8 26.7 14.4 2 1.3 3.9 2.8 5.9 4.2 4.2 3-1.7-1.8-2.4-1.9.9.1 2.3 1.8 3.1 2.5 3.9 3.2 7.6 6.6 11.1 10.1 3.4 3.4 6.6 6.9 9.7 10.6.8 1 1.6 2 2.5 3.1 2.3 2.7-4.6-6.2-1.9-2.4 1.5 2.1 3.1 4.2 4.6 6.4 5.7 8.4 10.4 17.4 14.4 26.7l-3-7.2c5.4 12.9 9 26.4 10.9 40.3-.4-2.7-.7-5.3-1.1-8 1.4 10.7 1.4 21.4 1.4 32.1v171.4c0 15.7 13.8 30.7 30 30 16.3-.7 30-13.2 30-30V263.6c0-16 .1-32 0-47.9-.2-47.3-18.2-92.7-50-127.6-32.2-35.1-77-55.5-123.9-59.6-44-3.9-90.3 9.6-125.4 36.3-37.1 28.2-64.6 68.9-72.8 115.3-3.9 21.8-3.5 43.3-3.5 65.3v152.9c0 15.7 13.8 30.7 30 30 16.2-.7 29.9-13.2 29.9-30z" fill="#ffffff" class="color000 svgShape"></path></svg>